<svg width="161" height="58" viewBox="0 0 161 58" fill="none" xmlns="http://www.w3.org/2000/svg">
<path d="M105.951 5.64976L106.736 5.58965V1.4425L105.468 1.50261L105.287 2.10364H105.046L105.106 1.20209H108.668V2.10364H108.487L108.366 1.4425L107.098 1.3824V5.52955L107.944 5.58965V5.76996H105.891V5.64976H105.951Z" fill="white"/>
<path d="M110.841 5.64976L111.385 5.58965V1.4425L110.902 1.3824V1.20209H112.351V1.4425L111.868 1.50261V3.48603H114.403V1.4425L113.92 1.3824V1.20209H115.309V1.4425L114.826 1.50261V5.58965L115.369 5.64976V5.83007H113.86V5.64976L114.343 5.58965V3.72644H111.807V5.58965L112.29 5.64976V5.83007H110.841V5.64976Z" fill="white"/>
<path d="M117.724 5.64976L118.267 5.58965V1.4425H117.724V1.20209H120.863L120.923 2.04354H120.682L120.561 1.4425L118.75 1.3824V3.18551H119.957L120.018 2.70468H120.259V3.96685H120.018L119.957 3.48603H118.75V5.58965L120.742 5.52955L121.044 4.8083L121.286 4.86841L121.165 5.83007H117.724V5.64976Z" fill="white"/>
<path d="M87.7192 54.6342C87.7192 54.3938 87.7192 54.2135 87.7796 54.0332C87.84 53.8529 87.9004 53.6725 88.0211 53.4922C88.1418 53.3119 88.2022 53.1917 88.3833 53.0715C88.5041 52.9513 88.6852 52.8311 88.8059 52.771C88.987 52.7109 89.1078 52.5907 89.2889 52.5907C89.47 52.5306 89.6511 52.5306 89.8322 52.5306C89.953 52.5306 90.0737 52.5306 90.1944 52.5306C90.3152 52.5306 90.3756 52.5907 90.4963 52.5907C90.5567 52.5907 90.6774 52.6508 90.7378 52.6508C90.7982 52.6508 90.8585 52.7109 90.9189 52.7109L90.8585 53.4321H90.6171L90.4963 52.9513C90.3756 52.8912 90.2548 52.8311 90.1341 52.771C90.0133 52.7109 89.8322 52.7109 89.6511 52.7109C89.5304 52.7109 89.3493 52.7109 89.2285 52.771C89.1078 52.8311 88.987 52.8311 88.8663 52.9513C88.7455 53.0114 88.6248 53.1316 88.5644 53.1917C88.4437 53.3119 88.3833 53.4321 88.3229 53.5523C88.2626 53.6725 88.2022 53.8529 88.1418 54.0332C88.0815 54.2135 88.0815 54.3938 88.0815 54.5741C88.0815 54.7544 88.0815 54.9347 88.1418 55.0549C88.2022 55.1751 88.2022 55.3554 88.2626 55.5358C88.3229 55.656 88.3833 55.7762 88.5041 55.8964C88.5644 56.0166 88.6852 56.1368 88.8059 56.1969C88.9267 56.257 89.0474 56.3171 89.2285 56.3772C89.3493 56.4373 89.5304 56.4373 89.7115 56.4373C89.953 56.4373 90.1341 56.4373 90.2548 56.3772C90.3756 56.3171 90.5567 56.257 90.6171 56.1969L90.7378 55.7762H90.7982C90.8585 55.7762 90.8585 55.7762 90.8585 55.7762V56.4974C90.7982 56.4974 90.7378 56.4974 90.6774 56.5575C90.617 56.6176 90.5567 56.4974 90.4963 56.4974C90.3756 56.4974 90.2548 56.5575 90.1341 56.5575C90.0133 56.5575 89.8322 56.6176 89.6511 56.6176C89.3493 56.6176 89.1078 56.5575 88.9267 56.4974C88.7455 56.4373 88.5041 56.257 88.3229 56.0767C88.1418 55.8964 88.0211 55.7161 87.9004 55.4757C87.7796 55.2352 87.7192 54.9347 87.7192 54.6342Z" fill="white"/>
<path d="M92.73 56.3772L93.0923 56.3171L94.4808 52.4705H94.7827L96.1712 56.3171L96.5938 56.3772V56.5575H95.3864V56.3772L95.809 56.3171L95.4467 55.3554H93.7563L93.4545 56.3171L93.9375 56.3772V56.5575H92.73V56.3772ZM95.3864 55.115L94.843 53.4922L94.6619 52.8912L93.8771 55.115H95.3864Z" fill="white"/>
<path d="M98.4653 56.3772L98.9483 56.3171V52.771L98.5257 52.7109V52.4704H99.3709L101.242 55.4756L101.605 56.1969V52.7109L101.122 52.6508V52.4103H102.329V52.6508L101.846 52.7109V56.4974H101.424L99.552 53.5523L99.1898 52.8311C99.1898 52.9513 99.1898 53.1316 99.1898 53.3119C99.1898 53.4922 99.1898 53.6725 99.1898 53.9129C99.1898 54.1533 99.1898 54.3337 99.1898 54.5741C99.1898 54.8145 99.1898 54.9948 99.1898 55.2352C99.1898 55.4756 99.1898 55.6559 99.1898 55.8362C99.1898 56.0166 99.1898 56.1969 99.1898 56.3171L99.7331 56.3772V56.5575H98.4653V56.3772Z" fill="white"/>
<path d="M104.865 56.3772L105.529 56.3171V52.7109L104.442 52.771L104.261 53.3119H104.08L104.14 52.5306H107.28V53.3119H107.098L106.978 52.771L105.891 52.7109V56.3171L106.615 56.3772V56.5575H104.804V56.3772H104.865Z" fill="white"/>
<path d="M109.211 56.3772L109.694 56.3171V52.7109L109.211 52.6508V52.4705H111.928L111.988 53.1917H111.747L111.626 52.7109H109.996V54.2736H111.083L111.143 53.8528H111.324V54.9347H111.143L111.083 54.514H109.996V56.3171L111.747 56.257L111.988 55.6559L112.17 55.7161L112.049 56.5575H109.151V56.3772H109.211Z" fill="white"/>
<path d="M114.101 56.3772L114.645 56.3171V52.771L114.162 52.7109V52.4705H114.826C114.947 52.4705 115.007 52.4705 115.188 52.4705C115.309 52.4705 115.49 52.4705 115.671 52.4705C115.852 52.4705 116.033 52.4705 116.214 52.5306C116.396 52.5907 116.516 52.6508 116.637 52.7109C116.758 52.771 116.879 52.8912 116.939 53.0715C116.999 53.1917 117.06 53.372 117.06 53.6124C117.06 53.7326 117.06 53.8528 116.999 53.973C116.939 54.0933 116.879 54.2135 116.818 54.2736C116.758 54.3938 116.637 54.4539 116.516 54.514C116.396 54.5741 116.275 54.6342 116.154 54.6943C116.214 54.6943 116.275 54.7544 116.335 54.8145C116.396 54.8746 116.456 54.9347 116.516 54.9948C116.577 55.0549 116.637 55.1751 116.697 55.2352C116.758 55.3554 116.818 55.4155 116.879 55.5357C116.939 55.656 116.999 55.7161 117.06 55.8363C117.12 55.9565 117.18 56.0166 117.18 56.0767C117.18 56.1368 117.241 56.1969 117.301 56.257C117.361 56.3171 117.361 56.3171 117.422 56.3171L117.724 56.3772V56.5575H117.06C117.06 56.5575 116.999 56.5575 116.939 56.4974C116.879 56.4373 116.879 56.3772 116.818 56.3171C116.758 56.257 116.697 56.1368 116.697 56.0166C116.637 55.8964 116.577 55.7762 116.516 55.6559C116.456 55.5357 116.396 55.4155 116.335 55.2953C116.275 55.1751 116.214 55.115 116.154 54.9948C116.094 54.9347 116.033 54.8746 115.973 54.8145C115.913 54.7544 115.852 54.7544 115.731 54.7544C115.611 54.7544 115.55 54.7544 115.43 54.7544C115.309 54.7544 115.248 54.7544 115.128 54.7544V56.3171L115.671 56.3772V56.5575H114.101V56.3772ZM115.067 54.514C115.067 54.514 115.128 54.514 115.188 54.514C115.248 54.514 115.309 54.514 115.369 54.514C115.43 54.514 115.49 54.514 115.55 54.514C115.611 54.514 115.671 54.514 115.671 54.514C115.852 54.514 115.973 54.514 116.094 54.4539C116.214 54.3938 116.335 54.3337 116.396 54.2736C116.456 54.2135 116.516 54.0933 116.577 53.973C116.637 53.8528 116.637 53.7326 116.637 53.5523C116.637 53.4321 116.637 53.2518 116.577 53.1316C116.516 53.0114 116.456 52.8912 116.396 52.8311C116.335 52.771 116.214 52.7109 116.094 52.6508C115.973 52.5907 115.792 52.5907 115.611 52.5907C115.55 52.5907 115.55 52.5907 115.49 52.5907C115.43 52.5907 115.369 52.5907 115.369 52.5907C115.309 52.5907 115.248 52.5907 115.248 52.5907C115.248 52.5907 115.188 52.5907 115.128 52.5907V54.514H115.067Z" fill="white"/>
<path d="M119.414 56.3772L119.897 56.3171V52.7109L119.414 52.6508V52.4705H120.078C120.139 52.4705 120.259 52.4705 120.32 52.4705C120.38 52.4705 120.501 52.4705 120.561 52.4705C120.621 52.4705 120.742 52.4705 120.803 52.4705C120.863 52.4705 120.984 52.4705 121.104 52.4705C121.286 52.4705 121.467 52.4705 121.648 52.5306C121.829 52.5907 121.95 52.6508 122.07 52.7109C122.191 52.771 122.252 52.8912 122.312 53.0114C122.372 53.1316 122.372 53.2518 122.372 53.372C122.372 53.4922 122.372 53.6124 122.312 53.7326C122.252 53.8528 122.252 53.9129 122.191 54.0332C122.131 54.1534 122.07 54.2135 121.95 54.2736C121.829 54.3337 121.708 54.3938 121.587 54.3938C121.708 54.3938 121.889 54.3938 122.01 54.4539C122.131 54.514 122.252 54.5741 122.372 54.6342C122.493 54.6943 122.553 54.8145 122.614 54.9347C122.674 55.0549 122.674 55.1751 122.674 55.3554C122.674 55.5357 122.614 55.7161 122.553 55.8363C122.493 56.0166 122.372 56.1368 122.252 56.257C122.131 56.3772 121.95 56.4373 121.708 56.4974C121.467 56.5575 121.225 56.6176 120.984 56.6176C120.923 56.6176 120.803 56.6176 120.742 56.6176C120.682 56.6176 120.561 56.6176 120.501 56.6176C120.44 56.6176 120.38 56.6176 120.259 56.6176C120.199 56.6176 120.139 56.6176 120.078 56.6176H119.414V56.3772ZM120.259 54.2736C120.32 54.2736 120.38 54.2736 120.44 54.2736C120.501 54.2736 120.561 54.2736 120.682 54.2736C120.803 54.2736 120.803 54.2736 120.923 54.2736C120.984 54.2736 121.044 54.2736 121.104 54.2736C121.225 54.2736 121.346 54.2736 121.467 54.2135C121.587 54.1534 121.708 54.1534 121.769 54.0332C121.829 53.973 121.889 53.8528 121.95 53.7326C122.01 53.6124 122.01 53.4922 122.01 53.3119C122.01 53.1917 122.01 53.0715 121.95 52.9513C121.889 52.8311 121.829 52.771 121.708 52.7109C121.587 52.6508 121.527 52.5907 121.406 52.5907C121.286 52.5907 121.165 52.5306 121.044 52.5306C120.984 52.5306 120.923 52.5306 120.863 52.5306C120.803 52.5306 120.742 52.5306 120.682 52.5306C120.621 52.5306 120.561 52.5306 120.501 52.5306C120.44 52.5306 120.38 52.5306 120.38 52.5306L120.259 54.2736ZM120.259 56.3171C120.32 56.3171 120.32 56.3171 120.38 56.3772C120.44 56.3772 120.501 56.3772 120.561 56.3772C120.621 56.3772 120.682 56.3772 120.803 56.3772C120.863 56.3772 120.923 56.3772 120.984 56.3772C121.104 56.3772 121.286 56.3772 121.406 56.3171C121.527 56.257 121.708 56.257 121.769 56.1368C121.829 56.0166 121.95 55.9565 122.07 55.8363C122.131 55.7161 122.191 55.5357 122.191 55.3554C122.191 55.1751 122.191 55.0549 122.131 54.9347C122.07 54.8145 122.01 54.7544 121.889 54.6342C121.769 54.5741 121.708 54.514 121.527 54.514C121.346 54.514 121.225 54.4539 121.104 54.4539C121.044 54.4539 120.984 54.4539 120.863 54.4539C120.742 54.4539 120.682 54.4539 120.621 54.4539C120.561 54.4539 120.44 54.4539 120.38 54.4539C120.32 54.4539 120.259 54.4539 120.199 54.4539V56.3171H120.259Z" fill="white"/>
<path d="M124.908 52.7109L124.485 52.6508V52.4705H125.753V52.6508L125.27 52.7109V54.8746C125.27 55.1751 125.33 55.4155 125.391 55.5958C125.451 55.7762 125.512 55.9565 125.632 56.0767C125.753 56.1969 125.874 56.257 126.055 56.3171C126.236 56.3772 126.357 56.3772 126.538 56.3772C126.719 56.3772 126.9 56.3171 127.021 56.257C127.142 56.1969 127.262 56.0767 127.383 55.9565C127.504 55.8363 127.564 55.656 127.564 55.4756C127.625 55.2953 127.625 55.0549 127.625 54.8145V52.7109L127.142 52.6508V52.4705H128.289V52.6508L127.866 52.7109V54.8145C127.866 55.115 127.806 55.4155 127.745 55.6559C127.685 55.8964 127.564 56.0767 127.443 56.1969C127.323 56.3171 127.142 56.4373 126.96 56.4974C126.779 56.5575 126.598 56.6176 126.357 56.6176C126.055 56.6176 125.813 56.5575 125.632 56.4974C125.451 56.4373 125.27 56.3171 125.149 56.1969C125.029 56.0767 124.908 55.8363 124.847 55.6559C124.787 55.4756 124.787 55.1751 124.787 54.8746V52.7109H124.908Z" fill="white"/>
<path d="M130.281 56.3772L130.824 56.3171V52.771L130.341 52.7109V52.4705H131.005C131.126 52.4705 131.186 52.4705 131.368 52.4705C131.488 52.4705 131.669 52.4705 131.851 52.4705C132.032 52.4705 132.213 52.4705 132.394 52.5306C132.575 52.5907 132.696 52.6508 132.816 52.7109C132.937 52.771 133.058 52.8912 133.118 53.0715C133.179 53.1917 133.239 53.372 133.239 53.6124C133.239 53.7326 133.239 53.8528 133.179 53.973C133.118 54.0933 133.058 54.2135 132.998 54.2736C132.937 54.3337 132.816 54.4539 132.696 54.514C132.575 54.5741 132.454 54.6342 132.333 54.6943C132.394 54.6943 132.454 54.7544 132.515 54.8145C132.575 54.8746 132.635 54.9347 132.696 54.9948C132.756 55.0549 132.816 55.1751 132.877 55.2352C132.937 55.3554 132.998 55.4155 133.058 55.5357C133.118 55.656 133.179 55.7161 133.239 55.8363C133.299 55.8964 133.36 56.0166 133.36 56.0767C133.42 56.1368 133.42 56.1969 133.481 56.257C133.541 56.3171 133.541 56.3171 133.601 56.3171L133.903 56.3772V56.5575H133.239C133.239 56.5575 133.179 56.5575 133.118 56.4974C133.058 56.4373 133.058 56.3772 132.998 56.3171C132.937 56.257 132.877 56.1368 132.877 56.0166C132.877 55.8964 132.756 55.7762 132.696 55.6559C132.635 55.5357 132.575 55.4155 132.515 55.2953C132.454 55.1751 132.394 55.115 132.333 54.9948C132.273 54.9347 132.213 54.8746 132.152 54.8145C132.092 54.7544 132.032 54.7544 131.911 54.7544C131.79 54.7544 131.73 54.7544 131.609 54.7544C131.488 54.7544 131.428 54.7544 131.307 54.7544V56.3171L131.851 56.3772V56.5575H130.341V56.3772H130.281ZM131.186 54.514C131.186 54.514 131.247 54.514 131.307 54.514C131.368 54.514 131.428 54.514 131.488 54.514C131.549 54.514 131.609 54.514 131.669 54.514C131.73 54.514 131.79 54.514 131.79 54.514C131.971 54.514 132.092 54.514 132.213 54.4539C132.334 54.3938 132.454 54.3337 132.515 54.2736C132.575 54.2135 132.635 54.0933 132.696 53.973C132.756 53.8528 132.756 53.7326 132.756 53.5523C132.756 53.4321 132.756 53.2518 132.696 53.1316C132.635 53.0114 132.575 52.8912 132.515 52.8311C132.454 52.771 132.334 52.7109 132.213 52.6508C132.092 52.5907 131.911 52.5907 131.73 52.5907C131.669 52.5907 131.669 52.5907 131.609 52.5907C131.549 52.5907 131.488 52.5907 131.488 52.5907C131.428 52.5907 131.368 52.5907 131.368 52.5907C131.368 52.5907 131.307 52.5907 131.247 52.5907V54.514H131.186Z" fill="white"/>
<path d="M136.378 56.3772L136.922 56.3171V54.8746L135.654 52.7109L135.352 52.6508V52.4705H136.559V52.6508L136.137 52.7109L137.042 54.3938L137.163 54.6943L137.284 54.3938L138.129 52.7109L137.707 52.6508V52.4705H138.854V52.6508L138.491 52.7109L137.344 54.8746V56.3171L137.888 56.3772V56.5575H136.439V56.3772H136.378Z" fill="white"/>
<path d="M73.5924 26.5057V35.7016L76.2488 35.942V37.2643H68.4609V35.942L71.0568 35.6415V16.4083L68.5816 16.0477V14.7254H76.2488V16.0477L73.5924 16.3482V24.8829V26.5057Z" fill="white"/>
<path d="M76.128 24.943H85.1837V16.4083L82.6481 16.0477V14.7254H90.1945V16.0477L87.7193 16.4083V35.7016L90.1945 36.0021V37.3244H82.7084V36.0021L85.244 35.7016V26.5057H76.1884" fill="white"/>
<path d="M95.0846 16.4684L92.7905 16.1078V14.7254H100.276V16.1078L97.6805 16.4684V27.828C97.6805 30.7731 98.2239 32.8166 99.3106 34.0187C100.397 35.2207 101.907 35.8218 103.838 35.8218C105.77 35.8218 107.28 35.1606 108.245 33.8384C109.211 32.5161 109.755 30.5928 109.755 28.0083V16.4684L107.219 16.1078V14.7254H113.981V16.1078L111.626 16.4684V27.9482C111.626 30.0518 111.264 31.7948 110.6 33.1772C109.936 34.5596 108.97 35.6415 107.763 36.3026C106.555 36.9637 105.167 37.3244 103.597 37.3244C101.605 37.3244 100.035 36.9637 98.7672 36.2425C97.4994 35.5213 96.5939 34.4394 95.9901 33.057C95.3864 31.6145 95.0846 29.8114 95.0846 27.5876V16.4684Z" fill="white"/>
<path d="M117.482 20.0746C118.509 18.3316 119.837 17.0093 121.587 16.1078C123.338 15.2062 125.27 14.7254 127.383 14.7254C128.711 14.7254 129.919 14.8456 131.005 15.0259C132.092 15.2062 133.179 15.4466 134.265 15.6871L134.024 20.4953H132.454L131.79 17.1897C131.428 16.9492 130.885 16.7088 130.16 16.5285C129.375 16.3482 128.409 16.228 127.142 16.228C125.572 16.228 124.123 16.5886 122.855 17.3099C121.587 18.0311 120.622 19.113 119.897 20.4953C119.173 21.9378 118.81 23.6207 118.81 25.6042C118.81 27.4073 119.112 29.0902 119.656 30.6529C120.259 32.2156 121.105 33.4777 122.312 34.4394C123.459 35.401 124.908 35.8819 126.598 35.8819C127.685 35.8819 128.711 35.7617 129.677 35.5213C130.643 35.2808 131.368 34.9202 131.971 34.4995V27.5876L127.745 27.2871V25.6643H136.439V27.2871L134.567 27.5876V35.8218C134.326 35.8218 134.024 35.8819 133.662 35.942C133.36 36.0021 132.937 36.1223 132.394 36.3026C131.368 36.6031 130.402 36.9036 129.496 37.084C128.591 37.2643 127.564 37.3845 126.478 37.3845C124.304 37.3845 122.433 36.9036 120.863 35.942C119.293 34.9803 118.086 33.658 117.241 32.0352C116.396 30.3523 115.973 28.4891 115.973 26.3855C115.973 23.9213 116.516 21.8176 117.482 20.0746Z" fill="white"/>
<path d="M139.518 20.1347C140.423 18.3917 141.631 17.0694 143.2 16.1078C144.77 15.1461 146.46 14.7254 148.332 14.7254C150.385 14.7254 152.075 15.2062 153.524 16.1078C154.973 17.0093 156.059 18.2715 156.784 19.9544C157.508 21.6373 157.871 23.5606 157.871 25.7845C157.871 28.0684 157.448 30.1119 156.542 31.8549C155.637 33.5979 154.429 34.9803 152.86 35.8819C151.29 36.8435 149.539 37.3244 147.668 37.3244C145.676 37.3244 143.985 36.8435 142.597 35.942C141.148 34.9803 140.121 33.7181 139.337 32.0352C138.612 30.3523 138.25 28.429 138.25 26.2052C138.129 23.8612 138.612 21.8777 139.518 20.1347ZM141.751 31.1938C142.295 32.6964 143.08 33.8384 144.166 34.6798C145.253 35.5213 146.46 35.942 147.97 35.942C149.358 35.942 150.626 35.5814 151.652 34.8C152.739 34.0187 153.524 32.8767 154.128 31.3741C154.731 29.8715 155.033 28.0083 155.033 25.8446C155.033 23.9213 154.731 22.2985 154.188 20.7959C153.645 19.3534 152.86 18.2114 151.773 17.37C150.747 16.5886 149.479 16.1679 148.03 16.1679C146.581 16.1679 145.374 16.5285 144.287 17.3099C143.2 18.0311 142.416 19.1731 141.812 20.6757C141.208 22.1783 140.906 23.9814 140.906 26.2052C140.967 28.0083 141.208 29.6912 141.751 31.1938Z" fill="white"/>
<path d="M38.2753 3.0052V55.115H3.38078V3.0052H38.2753ZM40.0864 1.20209H1.56964V56.9181H40.0864V1.20209Z" fill="white"/>
<path d="M32.4193 30.1119C33.1195 30.1119 33.6871 29.5468 33.6871 28.8498C33.6871 28.1527 33.1195 27.5876 32.4193 27.5876C31.7191 27.5876 31.1515 28.1527 31.1515 28.8498C31.1515 29.5468 31.7191 30.1119 32.4193 30.1119Z" fill="white"/>
<path d="M16.3606 29.4508V36.4829C16.3606 36.543 16.421 36.6031 16.4813 36.6031L18.2925 36.7835C18.3528 36.7835 18.4132 36.8436 18.4132 36.9638V37.8653H12.3761V36.9638C12.3761 36.9037 12.4365 36.8436 12.4968 36.7835L14.2476 36.6031C14.308 36.6031 14.3683 36.543 14.3683 36.4829V21.7576C14.3683 21.6974 14.308 21.6373 14.2476 21.6373L12.5572 21.3969C12.4968 21.3969 12.4365 21.3368 12.4365 21.2166V20.3151H18.4132V21.2166C18.4132 21.2767 18.3528 21.3368 18.2925 21.3969L16.4813 21.6373C16.421 21.6373 16.3606 21.6974 16.3606 21.7576V28.2487V29.4508Z" fill="white"/>
<path d="M18.3528 28.1886H25.2352C25.2955 28.1886 25.3559 28.1285 25.3559 28.0684V21.6974C25.3559 21.6373 25.2955 21.5772 25.2352 21.5772L23.5448 21.3368C23.4844 21.3368 23.424 21.2767 23.424 21.1565V20.2549H29.28V21.1565C29.28 21.2166 29.2196 21.2767 29.1593 21.3368L27.4689 21.5772C27.4085 21.5772 27.3481 21.6373 27.3481 21.6974V36.4228C27.3481 36.4829 27.4085 36.543 27.4689 36.543L29.1593 36.7233C29.2196 36.7233 29.28 36.7834 29.28 36.9037V37.8052H23.424V36.9037C23.424 36.8435 23.4844 36.7834 23.5448 36.7233L25.2352 36.543C25.2955 36.543 25.3559 36.4829 25.3559 36.4228V29.6311C25.3559 29.571 25.2955 29.5109 25.2352 29.5109H18.3528" fill="white"/>
</svg>

